<?xml version="1.0" encoding="UTF-8" standalone="no"?>
<svg width="235px" height="230px" viewBox="0 0 235 230" version="1.1" xmlns="http://www.w3.org/2000/svg" xmlns:xlink="http://www.w3.org/1999/xlink" xmlns:sketch="http://www.bohemiancoding.com/sketch/ns">
    <!-- Generator: Sketch 3.3.3 (12072) - http://www.bohemiancoding.com/sketch -->
    <title>skold copy 2</title>
    <desc>Created with Sketch.</desc>
    <defs></defs>
    <g id="Page-1" stroke="none" stroke-width="1" fill="none" fill-rule="evenodd" sketch:type="MSPage">
        <g id="Landing" sketch:type="MSArtboardGroup" transform="translate(-601.000000, -131.000000)">
            <g id="skold-copy-2" sketch:type="MSLayerGroup" transform="translate(604.000000, 114.000000)">
                <g id="g2620" transform="translate(0.099803, 0.280931)">
                    <g id="g2624" transform="translate(1.791127, 0.000000)"></g>
                    <g id="g3590" transform="translate(0.000000, 17.373269)" sketch:type="MSShapeGroup">
                        <g id="g5752" transform="translate(0.025569, 0.151576)">
                            <g id="g3716" transform="translate(0.155340, 0.215117)">
                                <ellipse id="circle2622" fill="#EE2A7B" cx="113.509766" cy="108.586519" rx="104.361017" ry="104.178639"></ellipse>
                                <g id="g2702" transform="translate(0.072514, 0.068759)" fill="#FCDA06">
                                    <path d="M113.432423,43.38085 L68.4432677,208.311644 L49.1562318,205.531258 L38.6556819,188.204785 L113.432423,43.38085 L113.432423,43.38085 Z" id="polygon2709"></path>
                                    <path d="M113.432423,42.0973482 L25.3682715,172.375196 L8.00985882,160.185137 L9.93767845,138.579789 L113.432423,42.0973482 L113.432423,42.0973482 Z" id="polygon2716"></path>
                                    <path d="M113.860738,43.0599746 L92.657936,215.690176 L115.3731,224.245518 L136.801711,215.2594 L113.860738,43.0599746 L113.860738,43.0599746 Z" id="polygon2723"></path>
                                    <path d="M114.718171,43.0599746 L159.729023,207.984351 L179.015255,205.202361 L189.515002,187.874283 L114.718171,43.0599746 L114.718171,43.0599746 Z" id="polygon2730"></path>
                                    <path d="M114.718171,41.7764727 L202.799198,172.043892 L220.156003,159.84902 L218.224969,138.245276 L114.718171,41.7764727 L114.718171,41.7764727 Z" id="polygon2737"></path>
                                    <path d="M114.718171,41.7764727 L222.082216,118.992748 L228.509353,101.878855 L219.508307,83.0546954 L114.718171,41.7764727 L114.718171,41.7764727 Z" id="polygon2744"></path>
                                    <path d="M114.718171,41.7764727 L213.507075,66.7983419 L210.505655,49.4718687 L196.361614,40.2731711 L114.718171,41.7764727 L114.718171,41.7764727 Z" id="polygon2751"></path>
                                    <path d="M114.718171,41.7764727 L185.647309,28.7224563 L176.646263,17.1725438 L161.217277,13.3228403 L114.718171,41.7764727 L114.718171,41.7764727 Z" id="polygon2758"></path>
                                    <path d="M114.718171,43.0599746 L148.358986,7.33369965 L135.501497,0.0618592949 L120.929945,1.77372993 L114.718171,43.0599746 L114.718171,43.0599746 Z" id="polygon2765"></path>
                                    <path d="M113.860738,41.7764727 L6.50794348,119.006385 L0.0775921885,101.894097 L9.07622674,83.0683326 L113.860738,41.7764727 L113.860738,41.7764727 Z" id="polygon2772"></path>
                                    <path d="M113.860738,41.7764727 L15.0758522,66.8111769 L18.0748613,49.4839015 L32.2172947,40.2835996 L113.860738,41.7764727 L113.860738,41.7764727 Z" id="polygon2779"></path>
                                    <path d="M113.860738,41.7764727 L42.9307968,28.7320826 L51.9302349,17.1805657 L67.3584172,13.3292578 L113.860738,41.7764727 L113.860738,41.7764727 Z" id="polygon2786"></path>
                                    <path d="M113.860738,43.0599746 L80.2151018,7.33851278 L93.07259,0.0650680496 L107.644142,1.77453212 L113.860738,43.0599746 L113.860738,43.0599746 Z" id="polygon2793"></path>
                                    <ellipse id="circle3585" cx="114.718179" cy="43.0599826" rx="11.5878112" ry="11.5675607"></ellipse>
                                </g>
                                <path d="M177.250756,117.004695 C171.349169,76.643374 138.660612,71.9770425 131.265146,69.6883982 C117.413613,65.4006997 94.0909332,66.8189693 91.7822105,46.6880444 C88.7382002,20.1684889 108.94535,33.2080659 122.406337,34.2469002 C135.863305,35.2857346 137.05423,19.9310411 137.05423,19.9310411 C137.05423,19.9310411 133.84468,28.0499927 106.631806,21.4431667 C79.4181284,14.837143 76.1796486,37.1195379 75.9554461,42.8912854 C75.3077502,59.5760077 86.1024151,67.5497631 87.2346777,72.0837335 C87.7280838,74.0523046 49.7599211,81.4220119 52.9959902,131.229907 C56.2312556,181.042615 86.8899363,201.431845 110.654592,202.620688 C134.421659,203.811136 186.839228,184.686156 177.250756,117.004695 L177.250756,117.004695 Z M159.241433,149.728378 C140.005024,222.267893 82.7980406,204.333361 68.8637378,151.120977 C55.3071237,99.3501267 92.2153471,74.3972457 92.2153471,74.3972457 C92.2153471,74.3972457 100.349316,77.5979785 109.814034,80.2612449 C115.348379,81.8182931 175.633123,87.9165315 159.241433,149.728378 L159.241433,149.728378 Z" id="path2802" stroke="#484848" fill="#212121"></path>
                            </g>
                        </g>
                    </g>
                </g>
            </g>
        </g>
    </g>
</svg>