<?xml version="1.0" encoding="UTF-8" standalone="no"?>
<!DOCTYPE svg PUBLIC "-//W3C//DTD SVG 1.1//EN"
"http://www.w3.org/Graphics/SVG/1.1/DTD/svg11.dtd">

<svg x="0" y="7" width="371" height="371" viewBox="0 7 371 378" version="1.1" xmlns="http://www.w3.org/2000/svg" xmlns:xlink="http://www.w3.org/1999/xlink"
	style="display: block;margin-left: auto;margin-right: auto;">
	<defs>
		<clipPath id="c0_1"><path d="M181.5,352.6C93.4,352.6,22,281.3,22,193.4C22,105.5,93.4,34.3,181.5,34.3c88,0,159.4,71.2,159.4,159.1c0,87.9,-71.4,159.2,-159.4,159.2Z" /></clipPath>
		<clipPath id="c1_1"><path d="M112.7,345.9L83.3,341.6L67.2,315.2L181.5,93.9l-68.8,252Z" /></clipPath>
		<clipPath id="c2_1"><path d="M46.9,291L20.4,272.4l3,-33L181.5,92L46.9,291Z" /></clipPath>
		<clipPath id="c3_1"><path d="M184.4,370.2l-34.7,-13L182.1,93.4l35.1,263.1l-32.8,13.7Z" /></clipPath>
		<clipPath id="c4_1"><path d="M252.2,345.4L183.4,93.4L297.7,314.7l-16,26.4l-29.5,4.3Z" /></clipPath>
		<clipPath id="c5_1"><path d="M318,290.5L183.4,91.5L341.6,238.8l2.9,33.1L318,290.5Z" /></clipPath>
		<clipPath id="c6_1"><path d="M347.5,209.4L183.4,91.5l160.1,63l13.8,28.8l-9.8,26.1Z" /></clipPath>
		<clipPath id="c7_1"><path d="M334.4,129.7L183.4,91.5L308.2,89.2l21.6,14l4.6,26.5Z" /></clipPath>
		<clipPath id="c8_1"><path d="M183.4,91.5L254.5,48l23.6,5.9l13.7,17.6l-108.4,20Z" /></clipPath>
		<clipPath id="c9_1"><path d="M183.4,93.4l9.5,-63.1l22.3,-2.6l19.6,11.1L183.4,93.4Z" /></clipPath>
		<clipPath id="c10_1"><path d="M18.1,209.5L8.3,183.3L22,154.5l160.1,-63l-164,118Z" /></clipPath>
		<clipPath id="c11_1"><path d="M31.2,129.7l4.6,-26.5l21.6,-14l124.7,2.3L31.2,129.7Z" /></clipPath>
		<clipPath id="c12_1"><path d="M182.1,91.5L73.8,71.5L87.5,53.9L111.1,48l71,43.5Z" /></clipPath>
		<clipPath id="c13_1"><path d="M182.1,93.4L130.7,38.8L150.4,27.7l22.2,2.6l9.5,63.1Z" /></clipPath>
		<clipPath id="c14_1"><path d="M183.4,111.1c-9.7,0,-17.7,-7.9,-17.7,-17.7c0,-9.7,8,-17.6,17.7,-17.6c9.8,0,17.7,7.9,17.7,17.6c0,9.8,-7.9,17.7,-17.7,17.7Z" /></clipPath>
		<clipPath id="c15_1"><path d="M184.8,329.7c26.4,0,52.8,-21.6,66.6,-73.4c25,-94.5,-67.1,-103.8,-75.6,-106.1c-14.4,-4.1,-26.8,-9,-26.8,-9c0,0,-56.4,38.1,-35.7,117.2c11.3,43.3,41.4,71.3,71.5,71.3Zm-4.4,7.5c-1.2,0,-2.2,-0.1,-3.3,-0.1C140.8,335.3,94,304.1,89,228c-4.9,-76.1,53.1,-87.3,52.3,-90.3c-1.7,-7,-18.2,-19.1,-17.2,-44.6c0.3,-7.7,4.1,-34.7,32.7,-34.7c4.2,0,8.9,0.6,14.2,1.9c12,2.9,21,3.9,27.6,3.9C215,64.2,217.5,58,217.5,58c0,0,-1.7,21.9,-20.5,21.9c-0.6,0,-1.2,0,-1.9,0C184.7,79.1,171.7,73.6,161.9,73.6c-9.5,0,-15.9,5.2,-13.6,25.3c3.5,30.7,39.1,28.5,60.3,35.1c11.3,3.5,61.3,10.6,70.3,72.3C293.1,306.7,218,337.2,180.4,337.2Z" /></clipPath>

		<style type="text/css"><![CDATA[

			.g1_1{
			fill: #EE2A7B;
			}
			.g2_1{
			fill: #FCDA06;
			}
			.g3_1{
			fill: #FFFFFF;
			}
			.g4_1{
			fill: none;
			stroke: #FFFFFF;
			stroke-width: 3.0555556;
			stroke-linecap: butt;
			stroke-linejoin: miter;
			}


		]]></style>

	</defs>
	<g clip-path="url(#c0_1)">
		<path d="M14.4,26.6l334.2,0l0,333.6l-334.2,0Z" class="g1_1" />
	</g>
	<g clip-path="url(#c1_1)">
		<path d="M59.6,86.3l129.5,0l0,267.2l-129.5,0Z" class="g2_1" />
	</g>
	<g clip-path="url(#c2_1)">
		<path d="M12.8,84.3l176.3,0l0,214.3l-176.3,0Z" class="g2_1" />
	</g>
	<g clip-path="url(#c3_1)">
		<path d="M142.1,85.8l82.7,0l0,292.1l-82.7,0Z" class="g2_1" />
	</g>
	<g clip-path="url(#c4_1)">
		<path d="M175.8,85.8l129.6,0l0,267.2l-129.6,0Z" class="g2_1" />
	</g>
	<g clip-path="url(#c5_1)">
		<path d="M175.8,83.8l176.4,0l0,214.3l-176.4,0Z" class="g2_1" />
	</g>
	<g clip-path="url(#c6_1)">
		<path d="M175.8,83.8l189.1,0l0,133.3l-189.1,0Z" class="g2_1" />
	</g>
	<g clip-path="url(#c7_1)">
		<path d="M175.8,81.5l166.2,0l0,55.8l-166.2,0Z" class="g2_1" />
	</g>
	<g clip-path="url(#c8_1)">
		<path d="M175.8,40.4l123.6,0l0,58.7l-123.6,0Z" class="g2_1" />
	</g>
	<g clip-path="url(#c9_1)">
		<path d="M175.8,20.1l66.7,0l0,81l-66.7,0Z" class="g2_1" />
	</g>
	<g clip-path="url(#c10_1)">
		<path d="M0.7,83.8l189.1,0l0,133.3l-189.1,0Z" class="g2_1" />
	</g>
	<g clip-path="url(#c11_1)">
		<path d="M23.6,81.5l166.2,0l0,55.8l-166.2,0Z" class="g2_1" />
	</g>
	<g clip-path="url(#c12_1)">
		<path d="M66.1,40.4l123.7,0l0,58.7l-123.7,0Z" class="g2_1" />
	</g>
	<g clip-path="url(#c13_1)">
		<path d="M123.1,20.1l66.7,0l0,81l-66.7,0Z" class="g2_1" />
	</g>
	<g clip-path="url(#c14_1)">
		<path d="M158.1,68.1l50.7,0l0,50.6l-50.7,0Z" class="g2_1" />
	</g>
	<g clip-path="url(#c15_1)">
		<path d="M81.1,50.3l207.2,0l0,294.5l-207.2,0Z" class="g3_1" />
	</g>
	<path d="M278.9,206.3c-9,-61.7,-59,-68.8,-70.3,-72.3c-21.2,-6.6,-56.8,-4.4,-60.3,-35.1c-4.7,-40.6,26.2,-20.6,46.8,-19C215.6,81.4,217.5,58,217.5,58c0,0,-4.9,12.4,-46.5,2.3C129.4,50.2,124.5,84.2,124.1,93.1c-1,25.5,15.5,37.6,17.2,44.6c0.8,3,-57.2,14.2,-52.3,90.3c5,76.1,51.8,107.3,88.1,109.1c36.3,1.8,116.4,-27.4,101.8,-130.8Zm-27.5,50C222,367.1,134.6,339.7,113.3,258.4C92.6,179.3,149,141.2,149,141.2c0,0,12.4,4.9,26.8,9c8.5,2.3,100.6,11.6,75.6,106.1Z" class="g4_1" />

</svg>
