<?xml version="1.0" encoding="UTF-8" standalone="no"?>
<svg width="119px" height="169px" viewBox="0 0 119 169" version="1.1" xmlns="http://www.w3.org/2000/svg" xmlns:xlink="http://www.w3.org/1999/xlink" xmlns:sketch="http://www.bohemiancoding.com/sketch/ns">
    <!-- Generator: Sketch 3.4.1 (15681) - http://www.bohemiancoding.com/sketch -->
    <title>path4172</title>
    <desc>Created with Sketch.</desc>
    <defs></defs>
    <g id="Page-1" stroke="none" stroke-width="1" fill="none" fill-rule="evenodd" sketch:type="MSPage">
        <path d="M117.268148,89.7741761 C111.701429,52.4478348 80.8676901,48.1323892 73.8918579,46.0158401 C60.8262902,42.0505562 38.8269879,43.3621786 36.649267,24.7450037 C33.7779801,0.219592898 52.838534,12.2786556 65.535716,13.2393745 C78.2291079,14.2000934 79.3524572,-1.42108547e-14 79.3524572,-1.42108547e-14 C79.3524572,-1.42108547e-14 76.3250233,7.50844499 50.6562651,1.39842099 C24.9867488,-4.71086115 21.9320271,15.8960034 21.7205464,21.233743 C21.109602,36.6638534 28.1634775,43.9452423 30.8430293,47.3032628 C25.1466858,51.2577303 -1.47184833,64.0111516 0.063858057,102.92972 C3.11554778,148.996749 32.0345906,167.852805 54.4507903,168.952253 C76.8692641,170.053185 126.31255,152.366313 117.268148,89.7741761 L117.268148,89.7741761 Z M100.280712,120.037193 C82.1358165,187.122082 28.1748777,170.536141 15.0312364,121.325076 C2.243853,73.4471475 37.0578265,50.3706046 37.0578265,50.3706046 C37.0578265,50.3706046 44.7302566,53.3306575 53.6579271,55.793659 C58.8782418,57.2336246 115.742303,62.8733043 100.280712,120.037193 L100.280712,120.037193 Z" id="path4172" fill="#FFFFFF" sketch:type="MSShapeGroup"></path>
    </g>
</svg>